<?xml version="1.0" encoding="UTF-8" standalone="no"?>
<!DOCTYPE svg PUBLIC "-//W3C//DTD SVG 1.1//EN"
 "http://www.w3.org/Graphics/SVG/1.1/DTD/svg11.dtd">
<!-- Generated by graphviz version 14.1.2 (20260124.0452)
 -->
<!-- Title: UseCaseSistemUtama Pages: 1 -->
<svg width="1531pt" height="915pt"
 viewBox="0.00 0.00 1531.00 915.00" xmlns="http://www.w3.org/2000/svg" xmlns:xlink="http://www.w3.org/1999/xlink">
<g id="graph0" class="graph" transform="scale(1 1) rotate(0) translate(25.2 889.4)">
<title>UseCaseSistemUtama</title>
<polygon fill="white" stroke="none" points="-25.2,25.2 -25.2,-889.4 1505.33,-889.4 1505.33,25.2 -25.2,25.2"/>
<text xml:space="preserve" text-anchor="middle" x="740.06" y="-837.4" font-family="Arial" font-size="24.00">Use Case Diagram Sistem Cek</text>
<!-- Operator&#45;&#45;OP1 -->
<g id="edge1" class="edge">
<title>Operator&#45;&#45;OP1</title>
<path fill="none" stroke="#475569" stroke-width="1.1" d="M69.71,-675.83C122.07,-682.81 221.64,-696.08 282.78,-704.24"/>
</g>
<!-- Operator&#45;&#45;OP2 -->
<g id="edge2" class="edge">
<title>Operator&#45;&#45;OP2</title>
<path fill="none" stroke="#475569" stroke-width="1.1" d="M69.71,-667.73C119.91,-662.71 213.5,-653.35 275.03,-647.2"/>
</g>
<!-- Operator&#45;&#45;OP3 -->
<g id="edge3" class="edge">
<title>Operator&#45;&#45;OP3</title>
<path fill="none" stroke="#475569" stroke-width="1.1" d="M69.71,-659.63C124.08,-641.51 229.33,-606.42 289.63,-586.32"/>
</g>
<!-- Operator&#45;&#45;OP4 -->
<g id="edge4" class="edge">
<title>Operator&#45;&#45;OP4</title>
<path fill="none" stroke="#475569" stroke-width="1.1" d="M69.71,-651.53C126.47,-619.37 238.68,-555.78 297.32,-522.55"/>
</g>
<!-- Operator&#45;&#45;Login -->
<g id="edge5" class="edge">
<title>Operator&#45;&#45;Login</title>
<path fill="none" stroke="#475569" stroke-width="1.1" d="M69.71,-663.27C192.06,-635.3 601.63,-541.68 709.03,-517.14"/>
</g>
<!-- Operator&#45;&#45;Dashboard -->
<g id="edge6" class="edge">
<title>Operator&#45;&#45;Dashboard</title>
<path fill="none" stroke="#475569" stroke-width="1.1" d="M69.71,-656.82C188.61,-607.56 578.77,-445.92 699.24,-396.01"/>
</g>
<!-- Operator&#45;&#45;Logout -->
<g id="edge7" class="edge">
<title>Operator&#45;&#45;Logout</title>
<path fill="none" stroke="#475569" stroke-width="1.1" d="M69.71,-650.37C193.72,-575.97 612.76,-324.54 713.22,-264.27"/>
</g>
<!-- Teknisi&#45;&#45;TK1 -->
<g id="edge8" class="edge">
<title>Teknisi&#45;&#45;TK1</title>
<path fill="none" stroke="#475569" stroke-width="1.1" d="M66.54,-162.76C119.34,-182.13 225.92,-221.2 287.72,-243.86"/>
</g>
<!-- Teknisi&#45;&#45;TK2 -->
<g id="edge9" class="edge">
<title>Teknisi&#45;&#45;TK2</title>
<path fill="none" stroke="#475569" stroke-width="1.1" d="M66.54,-155.41C116.93,-162.12 216.31,-175.37 279,-183.73"/>
</g>
<!-- Teknisi&#45;&#45;TK4 -->
<g id="edge11" class="edge">
<title>Teknisi&#45;&#45;TK4</title>
<path fill="none" stroke="#475569" stroke-width="1.1" d="M66.54,-148.05C116.63,-143.04 215.13,-133.19 277.87,-126.91"/>
</g>
<!-- Teknisi&#45;&#45;TK3 -->
<g id="edge10" class="edge">
<title>Teknisi&#45;&#45;TK3</title>
<path fill="none" stroke="#475569" stroke-width="1.1" d="M66.54,-140.69C117.54,-123.69 218.69,-89.97 281.23,-69.12"/>
</g>
<!-- Teknisi&#45;&#45;Login -->
<g id="edge12" class="edge">
<title>Teknisi&#45;&#45;Login</title>
<path fill="none" stroke="#475569" stroke-width="1.1" d="M66.44,-167.37C186.15,-228.94 611.88,-447.88 713.23,-500"/>
</g>
<!-- Teknisi&#45;&#45;Dashboard -->
<g id="edge13" class="edge">
<title>Teknisi&#45;&#45;Dashboard</title>
<path fill="none" stroke="#475569" stroke-width="1.1" d="M66.44,-161.53C179.63,-198.72 566.43,-325.81 693.89,-367.69"/>
</g>
<!-- Teknisi&#45;&#45;Logout -->
<g id="edge14" class="edge">
<title>Teknisi&#45;&#45;Logout</title>
<path fill="none" stroke="#475569" stroke-width="1.1" d="M66.44,-155.69C183.09,-172.36 590.32,-230.53 704.83,-246.89"/>
</g>
<!-- Admin&#45;&#45;Login -->
<g id="edge19" class="edge">
<title>Admin&#45;&#45;Login</title>
<path fill="none" stroke="#475569" stroke-width="1.1" d="M1408.41,-665.12C1297.28,-639.72 870.63,-542.2 760.87,-517.11"/>
</g>
<!-- Admin&#45;&#45;Dashboard -->
<g id="edge20" class="edge">
<title>Admin&#45;&#45;Dashboard</title>
<path fill="none" stroke="#475569" stroke-width="1.1" d="M1408.41,-660.19C1300.4,-615.44 894.35,-447.22 770.85,-396.05"/>
</g>
<!-- Admin&#45;&#45;Logout -->
<g id="edge21" class="edge">
<title>Admin&#45;&#45;Logout</title>
<path fill="none" stroke="#475569" stroke-width="1.1" d="M1408.41,-655.25C1295.91,-587.75 860.03,-326.22 756.94,-264.37"/>
</g>
<!-- Admin&#45;&#45;AD1 -->
<g id="edge15" class="edge">
<title>Admin&#45;&#45;AD1</title>
<path fill="none" stroke="#475569" stroke-width="1.1" d="M1408.11,-671.65C1360.01,-672.45 1258.19,-674.15 1193.37,-675.23"/>
</g>
<!-- Admin&#45;&#45;AD2 -->
<g id="edge16" class="edge">
<title>Admin&#45;&#45;AD2</title>
<path fill="none" stroke="#475569" stroke-width="1.1" d="M1408.11,-665.37C1358.06,-654.53 1249.88,-631.09 1185.71,-617.19"/>
</g>
<!-- Admin&#45;&#45;AD3 -->
<g id="edge17" class="edge">
<title>Admin&#45;&#45;AD3</title>
<path fill="none" stroke="#475569" stroke-width="1.1" d="M1408.11,-659.1C1355.33,-635.35 1237.89,-582.5 1175.61,-554.47"/>
</g>
<!-- Admin&#45;&#45;AD4 -->
<g id="edge18" class="edge">
<title>Admin&#45;&#45;AD4</title>
<path fill="none" stroke="#475569" stroke-width="1.1" d="M1408.11,-652.83C1352.74,-614.99 1226.22,-528.53 1166.86,-487.97"/>
</g>
<!-- SuperAdmin&#45;&#45;Login -->
<g id="edge24" class="edge">
<title>SuperAdmin&#45;&#45;Login</title>
<path fill="none" stroke="#475569" stroke-width="1.1" d="M1389.88,-174.41C1254.42,-244.07 854.62,-449.68 756.79,-499.99"/>
</g>
<!-- SuperAdmin&#45;&#45;Dashboard -->
<g id="edge25" class="edge">
<title>SuperAdmin&#45;&#45;Dashboard</title>
<path fill="none" stroke="#475569" stroke-width="1.1" d="M1389.88,-166.03C1262.13,-208 899.28,-327.22 776.33,-367.62"/>
</g>
<!-- SuperAdmin&#45;&#45;Logout -->
<g id="edge26" class="edge">
<title>SuperAdmin&#45;&#45;Logout</title>
<path fill="none" stroke="#475569" stroke-width="1.1" d="M1389.88,-157.65C1258.05,-176.48 875.85,-231.08 765.29,-246.87"/>
</g>
<!-- SuperAdmin&#45;&#45;SA1 -->
<g id="edge22" class="edge">
<title>SuperAdmin&#45;&#45;SA1</title>
<path fill="none" stroke="#475569" stroke-width="1.1" d="M1390.09,-163.18C1335.08,-177.84 1242.2,-202.61 1184.98,-217.87"/>
</g>
<!-- SuperAdmin&#45;&#45;SA2 -->
<g id="edge23" class="edge">
<title>SuperAdmin&#45;&#45;SA2</title>
<path fill="none" stroke="#475569" stroke-width="1.1" d="M1390.09,-151.2C1335.82,-151.2 1244.67,-151.2 1187.29,-151.2"/>
</g>
<!-- OP1&#45;&#45;Login -->
<g id="edge28" class="edge">
<title>OP1&#45;&#45;Login</title>
<path fill="none" stroke="#475569" stroke-width="1.1" stroke-dasharray="5,2" d="M371.91,-692.74C449.71,-653.85 629.35,-564.03 702.81,-527.3"/>
<polygon fill="#475569" stroke="#475569" stroke-width="1.1" points="711.65,-522.87 704.72,-531.37 708.4,-524.55 702.73,-527.39 702.71,-527.35 702.69,-527.3 708.36,-524.46 700.7,-523.32 711.65,-522.87"/>
<text xml:space="preserve" text-anchor="middle" x="511.86" y="-601.47" font-family="Arial" font-size="9.00">&lt;&lt;include&gt;&gt;</text>
</g>
<!-- OP2&#45;&#45;Login -->
<g id="edge29" class="edge">
<title>OP2&#45;&#45;Login</title>
<path fill="none" stroke="#475569" stroke-width="1.1" stroke-dasharray="5,2" d="M383.25,-625.52C464.71,-599.04 627.64,-546.09 699.53,-522.73"/>
<polygon fill="#475569" stroke="#475569" stroke-width="1.1" points="708.98,-519.66 700.86,-527.03 705.52,-520.83 699.49,-522.79 699.47,-522.75 699.46,-522.7 705.49,-520.74 698.08,-518.47 708.98,-519.66"/>
<text xml:space="preserve" text-anchor="middle" x="515.89" y="-565.57" font-family="Arial" font-size="9.00">&lt;&lt;include&gt;&gt;</text>
</g>
<!-- OP4&#45;&#45;TK2 -->
<g id="edge30" class="edge">
<title>OP4&#45;&#45;TK2</title>
<path fill="none" stroke="#475569" stroke-width="1.1" stroke-dasharray="5,2" d="M335,-475.83C335,-420.97 335,-291.13 335,-227.55"/>
<polygon fill="#475569" stroke="#475569" stroke-width="1.1" points="335,-217.82 339.5,-227.82 335.05,-221.48 335.05,-227.82 335,-227.82 334.95,-227.82 334.95,-221.48 330.5,-227.82 335,-217.82"/>
<text xml:space="preserve" text-anchor="middle" x="310.62" y="-353.64" font-family="Arial" font-size="9.00">&lt;&lt;extend&gt;&gt;</text>
</g>
<!-- TK1&#45;&#45;Login -->
<g id="edge31" class="edge">
<title>TK1&#45;&#45;Login</title>
<path fill="none" stroke="#475569" stroke-width="1.1" stroke-dasharray="5,2" d="M369.45,-282.73C446.73,-331.03 632.82,-447.34 705.35,-492.67"/>
<polygon fill="#475569" stroke="#475569" stroke-width="1.1" points="713.67,-497.87 702.81,-496.39 710.54,-495.97 705.17,-492.61 705.19,-492.57 705.22,-492.53 710.6,-495.89 707.58,-488.76 713.67,-497.87"/>
<text xml:space="preserve" text-anchor="middle" x="511.9" y="-389.65" font-family="Arial" font-size="9.00">&lt;&lt;include&gt;&gt;</text>
</g>
<!-- TK2&#45;&#45;Login -->
<g id="edge32" class="edge">
<title>TK2&#45;&#45;Login</title>
<path fill="none" stroke="#475569" stroke-width="1.1" stroke-dasharray="5,2" d="M362.81,-213.45C436.72,-272.57 637.26,-433.01 709.03,-490.42"/>
<polygon fill="#475569" stroke="#475569" stroke-width="1.1" points="716.46,-496.37 705.84,-493.64 713.57,-494.12 708.62,-490.16 708.65,-490.12 708.68,-490.08 713.63,-494.04 711.46,-486.61 716.46,-496.37"/>
<text xml:space="preserve" text-anchor="middle" x="510.42" y="-353.88" font-family="Arial" font-size="9.00">&lt;&lt;include&gt;&gt;</text>
</g>
<!-- TK3&#45;&#45;TK4 -->
<g id="edge33" class="edge">
<title>TK3&#45;&#45;TK4</title>
<path fill="none" stroke="#475569" stroke-width="1.1" stroke-dasharray="5,2" d="M335,-76.47C335,-79.28 335,-82.18 335,-85.09"/>
<polygon fill="#475569" stroke="#475569" stroke-width="1.1" points="335,-94.86 330.5,-84.86 334.95,-91.2 334.95,-84.86 335,-84.86 335.05,-84.86 335.05,-91.2 339.5,-84.86 335,-94.86"/>
<text xml:space="preserve" text-anchor="middle" x="309.5" y="-82.73" font-family="Arial" font-size="9.00">&lt;&lt;include&gt;&gt;</text>
</g>
<!-- Reset&#45;&#45;Login -->
<g id="edge27" class="edge">
<title>Reset&#45;&#45;Login</title>
<path fill="none" stroke="#475569" stroke-width="1.1" stroke-dasharray="5,2" d="M735,-722.77C735,-683.07 735,-589.18 735,-540.94"/>
<polygon fill="#475569" stroke="#475569" stroke-width="1.1" points="735,-531.06 739.5,-541.06 735.05,-534.72 735.05,-541.06 735,-541.06 734.95,-541.06 734.95,-534.72 730.5,-541.06 735,-531.06"/>
<text xml:space="preserve" text-anchor="middle" x="710.62" y="-633.8" font-family="Arial" font-size="9.00">&lt;&lt;extend&gt;&gt;</text>
</g>
<!-- AD3&#45;&#45;Login -->
<g id="edge34" class="edge">
<title>AD3&#45;&#45;Login</title>
<path fill="none" stroke="#475569" stroke-width="1.1" stroke-dasharray="5,2" d="M1077.26,-532.59C994.26,-527.4 843.48,-517.98 773.1,-513.58"/>
<polygon fill="#475569" stroke="#475569" stroke-width="1.1" points="763.45,-512.98 773.72,-509.11 767.11,-513.16 773.44,-513.55 773.43,-513.6 773.43,-513.65 767.1,-513.26 773.15,-518.09 763.45,-512.98"/>
<text xml:space="preserve" text-anchor="middle" x="899.68" y="-514.54" font-family="Arial" font-size="9.00">&lt;&lt;include&gt;&gt;</text>
</g>
<!-- AD4&#45;&#45;AD3 -->
<g id="edge35" class="edge">
<title>AD4&#45;&#45;AD3</title>
<path fill="none" stroke="#475569" stroke-width="1.1" stroke-dasharray="5,2" d="M1135,-491.47C1135,-494.28 1135,-497.18 1135,-500.09"/>
<polygon fill="#475569" stroke="#475569" stroke-width="1.1" points="1135,-509.86 1130.5,-499.86 1134.95,-506.2 1134.95,-499.86 1135,-499.86 1135.05,-499.86 1135.05,-506.2 1139.5,-499.86 1135,-509.86"/>
<text xml:space="preserve" text-anchor="middle" x="1109.5" y="-497.73" font-family="Arial" font-size="9.00">&lt;&lt;include&gt;&gt;</text>
</g>
<!-- SA1&#45;&#45;Login -->
<g id="edge36" class="edge">
<title>SA1&#45;&#45;Login</title>
<path fill="none" stroke="#475569" stroke-width="1.1" stroke-dasharray="5,2" d="M1104.28,-252.71C1028.82,-305.53 835.27,-441.01 762.88,-491.68"/>
<polygon fill="#475569" stroke="#475569" stroke-width="1.1" points="754.98,-497.21 760.59,-487.79 757.95,-495.07 763.14,-491.44 763.17,-491.48 763.2,-491.52 758.01,-495.16 765.75,-495.17 754.98,-497.21"/>
<text xml:space="preserve" text-anchor="middle" x="908.08" y="-363.65" font-family="Arial" font-size="9.00">&lt;&lt;include&gt;&gt;</text>
</g>
<!-- SA2&#45;&#45;Login -->
<g id="edge37" class="edge">
<title>SA2&#45;&#45;Login</title>
<path fill="none" stroke="#475569" stroke-width="1.1" stroke-dasharray="5,2" d="M1110.28,-173.45C1038.59,-237.97 831.16,-424.65 759.61,-489.05"/>
<polygon fill="#475569" stroke="#475569" stroke-width="1.1" points="752.57,-495.38 757,-485.35 755.26,-492.9 759.97,-488.66 760.01,-488.69 760.04,-488.73 755.33,-492.97 763.02,-492.04 752.57,-495.38"/>
<text xml:space="preserve" text-anchor="middle" x="909.45" y="-322.7" font-family="Arial" font-size="9.00">&lt;&lt;include&gt;&gt;</text>
</g>
<!-- Operator -->
<g id="node1" class="node">
<title>Operator</title>
<text xml:space="preserve" text-anchor="middle" x="35" y="-687.75" font-family="Courier New" font-size="11.00"> &#160;O</text>
<text xml:space="preserve" text-anchor="middle" x="35" y="-674.25" font-family="Courier New" font-size="11.00"> /|\</text>
<text xml:space="preserve" text-anchor="middle" x="35" y="-660.75" font-family="Courier New" font-size="11.00"> / \</text>
<text xml:space="preserve" text-anchor="middle" x="35" y="-647.25" font-family="Courier New" font-size="11.00">Operator</text>
</g>
<!-- Teknisi -->
<g id="node2" class="node">
<title>Teknisi</title>
<text xml:space="preserve" text-anchor="middle" x="35" y="-167.75" font-family="Courier New" font-size="11.00"> &#160;O</text>
<text xml:space="preserve" text-anchor="middle" x="35" y="-154.25" font-family="Courier New" font-size="11.00"> /|\</text>
<text xml:space="preserve" text-anchor="middle" x="35" y="-140.75" font-family="Courier New" font-size="11.00"> / \</text>
<text xml:space="preserve" text-anchor="middle" x="35" y="-127.25" font-family="Courier New" font-size="11.00">Teknisi</text>
</g>
<!-- Admin -->
<g id="node3" class="node">
<title>Admin</title>
<text xml:space="preserve" text-anchor="middle" x="1435" y="-687.75" font-family="Courier New" font-size="11.00"> &#160;O</text>
<text xml:space="preserve" text-anchor="middle" x="1435" y="-674.25" font-family="Courier New" font-size="11.00"> /|\</text>
<text xml:space="preserve" text-anchor="middle" x="1435" y="-660.75" font-family="Courier New" font-size="11.00"> / \</text>
<text xml:space="preserve" text-anchor="middle" x="1435" y="-647.25" font-family="Courier New" font-size="11.00">Admin</text>
</g>
<!-- SuperAdmin -->
<g id="node4" class="node">
<title>SuperAdmin</title>
<text xml:space="preserve" text-anchor="middle" x="1435" y="-167.75" font-family="Courier New" font-size="11.00"> &#160;O</text>
<text xml:space="preserve" text-anchor="middle" x="1435" y="-154.25" font-family="Courier New" font-size="11.00"> /|\</text>
<text xml:space="preserve" text-anchor="middle" x="1435" y="-140.75" font-family="Courier New" font-size="11.00"> / \</text>
<text xml:space="preserve" text-anchor="middle" x="1435" y="-127.25" font-family="Courier New" font-size="11.00">Super Admin</text>
</g>
<!-- BoxSystem -->
<g id="node5" class="node">
<title>BoxSystem</title>
<path fill="none" stroke="#64748b" stroke-width="1.3" d="M1342.2,-772.8C1342.2,-772.8 127.8,-772.8 127.8,-772.8 121.8,-772.8 115.8,-766.8 115.8,-760.8 115.8,-760.8 115.8,-21.6 115.8,-21.6 115.8,-15.6 121.8,-9.6 127.8,-9.6 127.8,-9.6 1342.2,-9.6 1342.2,-9.6 1348.2,-9.6 1354.2,-15.6 1354.2,-21.6 1354.2,-21.6 1354.2,-760.8 1354.2,-760.8 1354.2,-766.8 1348.2,-772.8 1342.2,-772.8"/>
</g>
<!-- TitleSystem -->
<g id="node6" class="node">
<title>TitleSystem</title>
<text xml:space="preserve" text-anchor="middle" x="735" y="-805.37" font-family="Arial" font-size="16.00">Sistem Cek</text>
</g>
<!-- BoxOperator -->
<g id="node7" class="node">
<title>BoxOperator</title>
<path fill="none" stroke="#94a3b8" stroke-width="1.1" d="M434.6,-757.4C434.6,-757.4 235.4,-757.4 235.4,-757.4 229.4,-757.4 223.4,-751.4 223.4,-745.4 223.4,-745.4 223.4,-467 223.4,-467 223.4,-461 229.4,-455 235.4,-455 235.4,-455 434.6,-455 434.6,-455 440.6,-455 446.6,-461 446.6,-467 446.6,-467 446.6,-745.4 446.6,-745.4 446.6,-751.4 440.6,-757.4 434.6,-757.4"/>
</g>
<!-- TitleOperator -->
<g id="node8" class="node">
<title>TitleOperator</title>
<text xml:space="preserve" text-anchor="middle" x="335" y="-775.77" font-family="Arial" font-size="14.00">Fitur Operator</text>
</g>
<!-- BoxTeknisi -->
<g id="node9" class="node">
<title>BoxTeknisi</title>
<path fill="none" stroke="#94a3b8" stroke-width="1.1" d="M434.6,-302.4C434.6,-302.4 235.4,-302.4 235.4,-302.4 229.4,-302.4 223.4,-296.4 223.4,-290.4 223.4,-290.4 223.4,-12 223.4,-12 223.4,-6 229.4,0 235.4,0 235.4,0 434.6,0 434.6,0 440.6,0 446.6,-6 446.6,-12 446.6,-12 446.6,-290.4 446.6,-290.4 446.6,-296.4 440.6,-302.4 434.6,-302.4"/>
</g>
<!-- TitleTeknisi -->
<g id="node10" class="node">
<title>TitleTeknisi</title>
<text xml:space="preserve" text-anchor="middle" x="335" y="-315.78" font-family="Arial" font-size="14.00">Fitur Teknisi</text>
</g>
<!-- BoxAdmin -->
<g id="node11" class="node">
<title>BoxAdmin</title>
<path fill="none" stroke="#94a3b8" stroke-width="1.1" d="M1238.2,-733.8C1238.2,-733.8 1031.8,-733.8 1031.8,-733.8 1025.8,-733.8 1019.8,-727.8 1019.8,-721.8 1019.8,-721.8 1019.8,-450.6 1019.8,-450.6 1019.8,-444.6 1025.8,-438.6 1031.8,-438.6 1031.8,-438.6 1238.2,-438.6 1238.2,-438.6 1244.2,-438.6 1250.2,-444.6 1250.2,-450.6 1250.2,-450.6 1250.2,-721.8 1250.2,-721.8 1250.2,-727.8 1244.2,-733.8 1238.2,-733.8"/>
</g>
<!-- TitleAdmin -->
<g id="node12" class="node">
<title>TitleAdmin</title>
<text xml:space="preserve" text-anchor="middle" x="1135" y="-745.78" font-family="Arial" font-size="14.00">Fitur Admin</text>
</g>
<!-- BoxSuperAdmin -->
<g id="node13" class="node">
<title>BoxSuperAdmin</title>
<path fill="none" stroke="#94a3b8" stroke-width="1.1" d="M1238.2,-270.4C1238.2,-270.4 1031.8,-270.4 1031.8,-270.4 1025.8,-270.4 1019.8,-264.4 1019.8,-258.4 1019.8,-258.4 1019.8,-124 1019.8,-124 1019.8,-118 1025.8,-112 1031.8,-112 1031.8,-112 1238.2,-112 1238.2,-112 1244.2,-112 1250.2,-118 1250.2,-124 1250.2,-124 1250.2,-258.4 1250.2,-258.4 1250.2,-264.4 1244.2,-270.4 1238.2,-270.4"/>
</g>
<!-- TitleSuperAdmin -->
<g id="node14" class="node">
<title>TitleSuperAdmin</title>
<text xml:space="preserve" text-anchor="middle" x="1135" y="-275.77" font-family="Arial" font-size="14.00">Manajemen Sistem</text>
</g>
<!-- OP1 -->
<g id="node15" class="node">
<title>OP1</title>
<ellipse fill="none" stroke="#334155" stroke-width="1.4" cx="335" cy="-711.2" rx="53.74" ry="24.75"/>
<text xml:space="preserve" text-anchor="middle" x="335" y="-714.25" font-family="Arial" font-size="11.00">Input Hasil</text>
<text xml:space="preserve" text-anchor="middle" x="335" y="-700.75" font-family="Arial" font-size="11.00">Pengecekan</text>
</g>
<!-- OP2 -->
<g id="node16" class="node">
<title>OP2</title>
<ellipse fill="none" stroke="#334155" stroke-width="1.4" cx="335" cy="-641.2" rx="61.16" ry="24.75"/>
<text xml:space="preserve" text-anchor="middle" x="335" y="-644.25" font-family="Arial" font-size="11.00">Lihat Jadwal &amp;</text>
<text xml:space="preserve" text-anchor="middle" x="335" y="-630.75" font-family="Arial" font-size="11.00">Checklist</text>
</g>
<!-- OP3 -->
<g id="node17" class="node">
<title>OP3</title>
<ellipse fill="none" stroke="#334155" stroke-width="1.4" cx="335" cy="-571.2" rx="55.86" ry="24.75"/>
<text xml:space="preserve" text-anchor="middle" x="335" y="-574.25" font-family="Arial" font-size="11.00">Unggah Foto</text>
<text xml:space="preserve" text-anchor="middle" x="335" y="-560.75" font-family="Arial" font-size="11.00">Kondisi Aset</text>
</g>
<!-- OP4 -->
<g id="node18" class="node">
<title>OP4</title>
<ellipse fill="none" stroke="#334155" stroke-width="1.4" cx="335" cy="-501.2" rx="68.59" ry="24.75"/>
<text xml:space="preserve" text-anchor="middle" x="335" y="-504.25" font-family="Arial" font-size="11.00">Buat Permintaan</text>
<text xml:space="preserve" text-anchor="middle" x="335" y="-490.75" font-family="Arial" font-size="11.00">Maintenance</text>
</g>
<!-- TK1 -->
<g id="node19" class="node">
<title>TK1</title>
<ellipse fill="none" stroke="#334155" stroke-width="1.4" cx="335" cy="-261.2" rx="64.35" ry="24.75"/>
<text xml:space="preserve" text-anchor="middle" x="335" y="-264.25" font-family="Arial" font-size="11.00">Perbarui Status</text>
<text xml:space="preserve" text-anchor="middle" x="335" y="-250.75" font-family="Arial" font-size="11.00">Maintenance</text>
</g>
<!-- TK2 -->
<g id="node20" class="node">
<title>TK2</title>
<ellipse fill="none" stroke="#334155" stroke-width="1.4" cx="335" cy="-191.2" rx="57.98" ry="24.75"/>
<text xml:space="preserve" text-anchor="middle" x="335" y="-194.25" font-family="Arial" font-size="11.00">Lihat Laporan</text>
<text xml:space="preserve" text-anchor="middle" x="335" y="-180.75" font-family="Arial" font-size="11.00">Kerusakan</text>
</g>
<!-- TK4 -->
<g id="node21" class="node">
<title>TK4</title>
<ellipse fill="none" stroke="#334155" stroke-width="1.4" cx="335" cy="-121.2" rx="57.98" ry="24.75"/>
<text xml:space="preserve" text-anchor="middle" x="335" y="-124.25" font-family="Arial" font-size="11.00">Perbarui Stok</text>
<text xml:space="preserve" text-anchor="middle" x="335" y="-110.75" font-family="Arial" font-size="11.00">Suku Cadang</text>
</g>
<!-- TK3 -->
<g id="node22" class="node">
<title>TK3</title>
<ellipse fill="none" stroke="#334155" stroke-width="1.4" cx="335" cy="-51.2" rx="75.48" ry="24.75"/>
<text xml:space="preserve" text-anchor="middle" x="335" y="-54.25" font-family="Arial" font-size="11.00">Catat Penggunaan</text>
<text xml:space="preserve" text-anchor="middle" x="335" y="-40.75" font-family="Arial" font-size="11.00">Suku Cadang</text>
</g>
<!-- Reset -->
<g id="node23" class="node">
<title>Reset</title>
<ellipse fill="none" stroke="#334155" stroke-width="1.4" cx="735" cy="-741.2" rx="59.53" ry="18"/>
<text xml:space="preserve" text-anchor="middle" x="735" y="-737.5" font-family="Arial" font-size="11.00">Reset Password</text>
</g>
<!-- Login -->
<g id="node24" class="node">
<title>Login</title>
<ellipse fill="none" stroke="#334155" stroke-width="1.4" cx="735" cy="-511.2" rx="27" ry="18"/>
<text xml:space="preserve" text-anchor="middle" x="735" y="-507.5" font-family="Arial" font-size="11.00">Login</text>
</g>
<!-- Dashboard -->
<g id="node25" class="node">
<title>Dashboard</title>
<ellipse fill="none" stroke="#334155" stroke-width="1.4" cx="735" cy="-381.2" rx="59.53" ry="18"/>
<text xml:space="preserve" text-anchor="middle" x="735" y="-377.5" font-family="Arial" font-size="11.00">Lihat Dashboard</text>
</g>
<!-- Logout -->
<g id="node26" class="node">
<title>Logout</title>
<ellipse fill="none" stroke="#334155" stroke-width="1.4" cx="735" cy="-251.2" rx="30.55" ry="18"/>
<text xml:space="preserve" text-anchor="middle" x="735" y="-247.5" font-family="Arial" font-size="11.00">Logout</text>
</g>
<!-- AD1 -->
<g id="node27" class="node">
<title>AD1</title>
<ellipse fill="none" stroke="#334155" stroke-width="1.4" cx="1135" cy="-676.2" rx="57.98" ry="24.75"/>
<text xml:space="preserve" text-anchor="middle" x="1135" y="-679.25" font-family="Arial" font-size="11.00">Kelola Master</text>
<text xml:space="preserve" text-anchor="middle" x="1135" y="-665.75" font-family="Arial" font-size="11.00">Mesin</text>
</g>
<!-- AD2 -->
<g id="node28" class="node">
<title>AD2</title>
<ellipse fill="none" stroke="#334155" stroke-width="1.4" cx="1135" cy="-606.2" rx="55.86" ry="24.75"/>
<text xml:space="preserve" text-anchor="middle" x="1135" y="-609.25" font-family="Arial" font-size="11.00">Kelola Daftar</text>
<text xml:space="preserve" text-anchor="middle" x="1135" y="-595.75" font-family="Arial" font-size="11.00">Pengecekan</text>
</g>
<!-- AD3 -->
<g id="node29" class="node">
<title>AD3</title>
<ellipse fill="none" stroke="#334155" stroke-width="1.4" cx="1135" cy="-536.2" rx="57.98" ry="24.75"/>
<text xml:space="preserve" text-anchor="middle" x="1135" y="-539.25" font-family="Arial" font-size="11.00">Lihat Laporan</text>
<text xml:space="preserve" text-anchor="middle" x="1135" y="-525.75" font-family="Arial" font-size="11.00">Maintenance</text>
</g>
<!-- AD4 -->
<g id="node30" class="node">
<title>AD4</title>
<ellipse fill="none" stroke="#334155" stroke-width="1.4" cx="1135" cy="-466.2" rx="63.82" ry="24.75"/>
<text xml:space="preserve" text-anchor="middle" x="1135" y="-469.25" font-family="Arial" font-size="11.00">Export Laporan</text>
<text xml:space="preserve" text-anchor="middle" x="1135" y="-455.75" font-family="Arial" font-size="11.00">PDF / Excel</text>
</g>
<!-- SA1 -->
<g id="node31" class="node">
<title>SA1</title>
<ellipse fill="none" stroke="#334155" stroke-width="1.4" cx="1135" cy="-231.2" rx="57.98" ry="24.75"/>
<text xml:space="preserve" text-anchor="middle" x="1135" y="-234.25" font-family="Arial" font-size="11.00">Kelola Role &amp;</text>
<text xml:space="preserve" text-anchor="middle" x="1135" y="-220.75" font-family="Arial" font-size="11.00">Hak Akses</text>
</g>
<!-- SA2 -->
<g id="node32" class="node">
<title>SA2</title>
<ellipse fill="none" stroke="#334155" stroke-width="1.4" cx="1135" cy="-151.2" rx="51.62" ry="24.75"/>
<text xml:space="preserve" text-anchor="middle" x="1135" y="-154.25" font-family="Arial" font-size="11.00">Kelola Akun</text>
<text xml:space="preserve" text-anchor="middle" x="1135" y="-140.75" font-family="Arial" font-size="11.00">Pengguna</text>
</g>
</g>
</svg>
